Tilt-Neon-Model-Skeleton.ufo
<glyph name="ampersand" format="2">
  <advance width="634"/>
  <unicode hex="0026"/>
  <outline>
    <contour>
      <point x="576.0" y="348" type="move"/>
      <point x="378" y="348" type="line"/>
      <point x="197.0" y="348.0"/>
      <point x="108.0" y="290"/>
      <point x="108.0" y="180" type="curve" smooth="yes"/>
      <point x="108.0" y="92.0"/>
      <point x="181" y="34.0"/>
      <point x="288" y="34.0" type="curve" smooth="yes"/>
      <point x="397" y="34.0"/>
      <point x="471" y="96"/>
      <point x="471" y="198" type="curve" smooth="yes"/>
      <point x="470" y="471" type="line"/>
    </contour>
    <contour>
      <point x="430" y="621.0" type="move"/>
      <point x="295" y="672"/>
      <point x="125.0" y="645.0"/>
      <point x="125.0" y="503" type="curve" smooth="yes"/>
      <point x="125.0" y="413"/>
      <point x="205.0" y="348.0"/>
      <point x="378" y="348.0" type="curve"/>
    </contour>
  </outline>
</glyph>
<glyph name="comma" format="2">
  <advance width="269"/>
  <unicode hex="002C"/>
  <outline>
    <contour>
      <point x="104.75701006646949" y="-114.0" type="move"/>
      <point x="145.7570100664695" y="-43.0"/>
      <point x="161.7570100664695" y="42.0"/>
      <point x="118.75701006646949" y="81.0" type="curve"/>
    </contour>
  </outline>
</glyph>
<glyph name="zero" format="2">
  <advance width="592"/>
  <unicode hex="0030"/>
  <outline>
    <contour>
      <point x="296.0" y="35.0" type="curve" smooth="yes"/>
      <point x="168.0" y="35.0"/>
      <point x="85.0" y="162.8308823529412"/>
      <point x="85.0" y="341.12132352941177" type="curve" smooth="yes"/>
      <point x="85.0" y="519.4117647058823"/>
      <point x="168.0" y="645.0"/>
      <point x="296.0" y="645.0" type="curve" smooth="yes"/>
      <point x="423.0" y="645.0"/>
      <point x="507.0" y="519.4117647058823"/>
      <point x="507.0" y="341.12132352941177" type="curve" smooth="yes"/>
      <point x="507.0" y="162.8308823529412"/>
      <point x="423.0" y="35.0"/>
    </contour>
  </outline>
</glyph>
<glyph name="one" format="2">
  <advance width="344"/>
  <unicode hex="0031"/>
  <outline>
    <contour>
      <point x="64.93114543370564" y="600.0" type="move"/>
      <point x="218.93114543370564" y="638.0" type="line"/>
      <point x="218.85526741764227" y="40.0" type="line"/>
    </contour>
  </outline>
</glyph>
<glyph name="two" format="2">
  <advance width="505"/>
  <unicode hex="0032"/>
  <outline>
    <contour>
      <point x="422.0" y="45.0" type="move"/>
      <point x="90.0" y="45.0" type="line"/>
      <point x="90.0" y="75.0" type="line"/>
      <point x="291.0" y="292.0" type="line" smooth="yes"/>
      <point x="380.0" y="388.0"/>
      <point x="412.0" y="443.0"/>
      <point x="412.0" y="502.0" type="curve" smooth="yes"/>
      <point x="412.0" y="625.0"/>
      <point x="264.0" y="685.0"/>
      <point x="98.0" y="615.0" type="curve"/>
    </contour>
  </outline>
</glyph>
<glyph name="eight" format="2">
  <advance width="535"/>
  <unicode hex="0038"/>
  <outline>
    <contour>
      <point x="269.04347826086956" y="359.0" type="curve" smooth="yes"/>
      <point x="178.4927536231884" y="359.0"/>
      <point x="110.57971014492753" y="406.9896907216495"/>
      <point x="110.57971014492753" y="496.1134020618557" type="curve" smooth="yes"/>
      <point x="110.57971014492753" y="582.2989690721649"/>
      <point x="177.463768115942" y="644.0"/>
      <point x="269.04347826086956" y="644.0" type="curve" smooth="yes"/>
      <point x="359.5942028985507" y="644.0"/>
      <point x="425.4492753623188" y="582.2989690721649"/>
      <point x="425.4492753623188" y="496.1134020618557" type="curve" smooth="yes"/>
      <point x="425.4492753623188" y="406.9896907216495"/>
      <point x="359.5942028985507" y="359.0"/>
    </contour>
    <contour>
      <point x="268.0144927536232" y="36.0" type="curve" smooth="yes"/>
      <point x="166.14492753623188" y="36.0"/>
      <point x="90.0" y="104.0"/>
      <point x="90.0" y="202.0" type="curve" smooth="yes"/>
      <point x="90.0" y="305.0"/>
      <point x="167.17391304347825" y="359.0"/>
      <point x="268.0144927536232" y="359.0" type="curve" smooth="yes"/>
      <point x="368.85507246376807" y="359.0"/>
      <point x="444.99999999999994" y="305.0"/>
      <point x="444.99999999999994" y="202.0" type="curve" smooth="yes"/>
      <point x="444.99999999999994" y="104.0"/>
      <point x="368.85507246376807" y="36.0"/>
    </contour>
  </outline>
</glyph>
<glyph name="colon" format="2">
  <advance width="260"/>
  <unicode hex="003A"/>
  <outline>
    <contour>
      <point x="140.0" y="40.0" type="move" name="YACKK"/>
      <point x="106.0" y="45"/>
      <point x="106.0" y="79"/>
      <point x="140.0" y="84.0" type="curve" name="FREEZ"/>
    </contour>
    <contour>
      <point x="140.0" y="400.0" type="move" name="YACKK"/>
      <point x="106.0" y="405.0"/>
      <point x="106.0" y="439.0"/>
      <point x="140.0" y="444.0" type="curve" name="FREEZ"/>
    </contour>
  </outline>
</glyph>
<glyph name="equal" format="2">
  <advance width="490"/>
  <unicode hex="003D"/>
  <outline>
    <contour>
      <point x="410" y="428" type="move"/>
      <point x="80" y="428" type="line"/>
    </contour>
    <contour>
      <point x="410" y="188" type="move"/>
      <point x="80" y="188" type="line"/>
    </contour>
  </outline>
</glyph>
<glyph name="D" format="2">
  <advance width="660"/>
  <unicode hex="0044"/>
  <outline>
    <contour>
      <point x="125.0" y="45.0" type="line" name="JITUK"/>
      <point x="125.0" y="635.0" type="line" name="IPTAQ"/>
      <point x="302.0" y="635.0" type="line" name="RENLY"/>
      <point x="463.0" y="635.0" name="NOOKS"/>
      <point x="570.0" y="512" name="BLUJA"/>
      <point x="570.0" y="341.0" type="curve" smooth="yes" name="BONEE"/>
      <point x="570.0" y="169" name="PFILA"/>
      <point x="465.0" y="45.0" name="MAMUE"/>
      <point x="303.0" y="45.0" type="curve" name="MAAAX"/>
    </contour>
  </outline>
</glyph>
<glyph name="F" format="2">
  <advance width="503"/>
  <unicode hex="0046"/>
  <outline>
    <contour>
      <point x="125.0" y="330.0" type="move" name="CFBCJ"/>
      <point x="403.0" y="330.0" type="line" name="CAGED"/>
    </contour>
    <contour>
      <point x="125.0" y="40.0" type="move" name="JITUK"/>
      <point x="125.0" y="635.0" type="line" name="IPTAQ"/>
      <point x="423.0" y="635.0" type="line" name="CAGED"/>
    </contour>
  </outline>
</glyph>
<glyph name="H" format="2">
  <advance width="688"/>
  <unicode hex="0048"/>
  <outline>
    <contour>
      <point x="126.0" y="40.0" type="move" name="JITUK"/>
      <point x="126.0" y="640.0" type="line" name="IPTAQ"/>
    </contour>
    <contour>
      <point x="564.0" y="40.0" type="move" name="BBRIK"/>
      <point x="564.0" y="640.0" type="line" name="BACTA"/>
    </contour>
    <contour>
      <point x="126.0" y="354.0" type="move" name="CFBCJ"/>
      <point x="564.0" y="354.0" type="line" name="CAGED"/>
    </contour>
    <contour>
      <point x="75" y="40" type="curve" smooth="yes"/>
      <point x="75" y="640" type="line" smooth="yes"/>
      <point x="75" y="667"/>
      <point x="98" y="690"/>
      <point x="125" y="690" type="curve" smooth="yes"/>
      <point x="152" y="690"/>
      <point x="175" y="667"/>
      <point x="175" y="640" type="curve" smooth="yes"/>
      <point x="175" y="40" type="line" smooth="yes"/>
      <point x="175" y="13"/>
      <point x="152" y="-10"/>
      <point x="125" y="-10" type="curve" smooth="yes"/>
      <point x="98" y="-10"/>
      <point x="75" y="13"/>
    </contour>
    <contour>
      <point x="513" y="40" type="curve" smooth="yes"/>
      <point x="513" y="640" type="line" smooth="yes"/>
      <point x="513" y="667"/>
      <point x="536" y="690"/>
      <point x="563" y="690" type="curve" smooth="yes"/>
      <point x="590" y="690"/>
      <point x="613" y="667"/>
      <point x="613" y="640" type="curve" smooth="yes"/>
      <point x="613" y="40" type="line" smooth="yes"/>
      <point x="613" y="13"/>
      <point x="590" y="-10"/>
      <point x="563" y="-10" type="curve" smooth="yes"/>
      <point x="536" y="-10"/>
      <point x="513" y="13"/>
    </contour>
    <contour>
      <point x="125" y="404" type="curve" smooth="yes"/>
      <point x="563" y="404" type="line" smooth="yes"/>
      <point x="590" y="404"/>
      <point x="613" y="381"/>
      <point x="613" y="354" type="curve" smooth="yes"/>
      <point x="613" y="327"/>
      <point x="590" y="304"/>
      <point x="563" y="304" type="curve" smooth="yes"/>
      <point x="125" y="304" type="line" smooth="yes"/>
      <point x="98" y="304"/>
      <point x="75" y="327"/>
      <point x="75" y="354" type="curve" smooth="yes"/>
      <point x="75" y="381"/>
      <point x="98" y="404"/>
    </contour>
  </outline>
</glyph>
<glyph name="I" format="2">
  <advance width="270"/>
  <unicode hex="0049"/>
  <outline>
    <contour>
      <point x="135" y="40" type="move" name="JITUK"/>
      <point x="135" y="640" type="line" name="IPTAQ"/>
    </contour>
  </outline>
</glyph>
<glyph name="L" format="2">
  <advance width="498"/>
  <unicode hex="004C"/>
  <outline>
    <contour>
      <point x="413.0" y="45.0" type="move" name="CAGED"/>
      <point x="125.0" y="45.0" type="line" name="JITUK"/>
      <point x="125.0" y="640.0" type="line" name="IPTAQ"/>
    </contour>
  </outline>
</glyph>
<glyph name="Y" format="2">
  <advance width="582"/>
  <unicode hex="0059"/>
  <outline>
    <contour>
      <point x="79.7266999643444" y="640.0" type="move"/>
      <point x="290.72669996434445" y="254.0" type="line"/>
      <point x="501.72669996434445" y="640.0" type="line"/>
    </contour>
    <contour>
      <point x="290.72669996434445" y="254.0" type="move"/>
      <point x="290.72669996434445" y="40.0" type="line"/>
    </contour>
  </outline>
</glyph>
<glyph name="backslash" format="2">
  <advance width="490"/>
  <unicode hex="005C"/>
  <outline>
    <contour>
      <point x="392.1609402892015" y="-120.0" type="move"/>
      <point x="112.16094028920152" y="730.0" type="line"/>
    </contour>
  </outline>
</glyph>
<glyph name="r" format="2">
  <advance width="389"/>
  <unicode hex="0072"/>
  <outline>
    <contour>
      <point x="329" y="456" type="move"/>
      <point x="196" y="477"/>
      <point x="111" y="379"/>
      <point x="111" y="261" type="curve"/>
    </contour>
    <contour>
      <point x="111" y="40" type="move" name="YACKK"/>
      <point x="111" y="458" type="line" name="FREEZ"/>
    </contour>
  </outline>
</glyph>
<glyph name="t" format="2">
  <advance width="336"/>
  <unicode hex="0074"/>
  <outline>
    <contour>
      <point x="163.2417806265526" y="40.0" type="move" name="YACKK"/>
      <point x="163.2417806265526" y="588.0" type="line" name="FREEZ"/>
    </contour>
    <contour>
      <point x="57.241780626552625" y="453.0" type="move"/>
      <point x="279.2417806265526" y="453.0" type="line"/>
    </contour>
  </outline>
</glyph>
<glyph name="z" format="2">
  <advance width="474"/>
  <unicode hex="007A"/>
  <outline>
    <contour>
      <point x="90.0" y="453.0" type="move"/>
      <point x="388.0" y="453.0" type="line"/>
      <point x="388.0" y="424.0" type="line"/>
      <point x="90.0" y="74.0" type="line"/>
      <point x="90.0" y="45.0" type="line"/>
      <point x="388.0" y="45.0" type="line"/>
    </contour>
  </outline>
</glyph>
<glyph name="exclamdown" format="2">
  <advance width="261"/>
  <unicode hex="00A1"/>
  <outline>
    <contour>
      <point x="132.25" y="295.0" type="move"/>
      <point x="132.25" y="-60.0" type="line"/>
    </contour>
    <contour>
      <point x="140.25" y="496.0" type="move" name="FREEZ"/>
      <point x="106.25" y="501.0"/>
      <point x="106.25" y="535.0"/>
      <point x="140.25" y="540.0" type="curve" name="YACKK"/>
    </contour>
  </outline>
</glyph>
<glyph name="yen" format="2">
  <advance width="599"/>
  <unicode hex="00A5"/>
  <outline>
    <contour>
      <point x="89" y="640" type="move"/>
      <point x="300" y="318" type="line"/>
      <point x="511" y="640" type="line"/>
    </contour>
    <contour>
      <point x="300.0" y="318.0" type="move"/>
      <point x="300" y="40" type="line"/>
    </contour>
    <contour>
      <point x="489" y="158" type="move"/>
      <point x="110" y="158" type="line"/>
    </contour>
    <contour>
      <point x="110" y="318" type="move"/>
      <point x="489" y="318" type="line"/>
    </contour>
  </outline>
</glyph>
<glyph name="brokenbar" format="2">
  <advance width="315"/>
  <unicode hex="00A6"/>
  <outline>
    <contour>
      <point x="158" y="230" type="move"/>
      <point x="158" y="-120" type="line"/>
    </contour>
    <contour>
      <point x="158" y="730" type="move"/>
      <point x="158" y="380" type="line"/>
    </contour>
  </outline>
</glyph>
<glyph name="guillemetleft" format="2">
  <advance width="637"/>
  <unicode hex="00AB"/>
  <outline>
    <contour>
      <point x="277.0" y="458.0" type="move"/>
      <point x="80.0" y="262.0" type="line"/>
      <point x="277.0" y="64.0" type="line"/>
    </contour>
    <contour>
      <point x="537.0" y="458.0" type="move"/>
      <point x="340.0" y="262.0" type="line"/>
      <point x="537.0" y="64.0" type="line"/>
    </contour>
  </outline>
</glyph>
<glyph name="degree" format="2">
  <advance width="532"/>
  <unicode hex="00B0"/>
  <outline>
    <contour>
      <point x="265" y="317" type="curve" smooth="yes"/>
      <point x="170" y="317"/>
      <point x="105" y="384"/>
      <point x="105" y="481" type="curve" smooth="yes"/>
      <point x="105" y="577"/>
      <point x="170" y="645"/>
      <point x="265" y="645" type="curve" smooth="yes"/>
      <point x="360" y="645"/>
      <point x="428" y="577"/>
      <point x="428" y="481" type="curve" smooth="yes"/>
      <point x="428" y="384"/>
      <point x="360" y="317"/>
    </contour>
  </outline>
</glyph>
<glyph name="Thorn" format="2">
  <advance width="593"/>
  <unicode hex="00DE"/>
  <outline>
    <contour>
      <point x="129.0" y="507.0" type="move"/>
      <point x="295.0" y="507.0" type="line" smooth="yes"/>
      <point x="405" y="507"/>
      <point x="475.0" y="437.0"/>
      <point x="475.0" y="338.0" type="curve" smooth="yes"/>
      <point x="475.0" y="236.0"/>
      <point x="405" y="170"/>
      <point x="307.0" y="170.0" type="curve" smooth="yes"/>
      <point x="129.0" y="170.0" type="line"/>
    </contour>
    <contour>
      <point x="125.0" y="40.0" type="move"/>
      <point x="125.0" y="635.0" type="line"/>
    </contour>
  </outline>
</glyph>
<glyph name="dotlessi" format="2">
  <advance width="231"/>
  <unicode hex="0131"/>
  <outline>
    <contour>
      <point x="115" y="40" type="move" name="YACKK"/>
      <point x="115" y="458" type="line" name="FREEZ"/>
    </contour>
  </outline>
</glyph>
<glyph name="ring" format="2">
  <advance width="420"/>
  <unicode hex="02DA"/>
  <anchor x="0" y="497.0" name="top"/>
  <anchor x="210" y="497.0" name="center"/>
  <outline>
    <contour>
      <point x="209.0" y="576.0" type="curve" smooth="yes"/>
      <point x="155" y="576.0"/>
      <point x="122.0" y="609.0"/>
      <point x="122.0" y="660.0" type="curve" smooth="yes"/>
      <point x="122.0" y="708.0"/>
      <point x="156" y="739.0"/>
      <point x="209.0" y="739.0" type="curve" smooth="yes"/>
      <point x="263" y="739.0"/>
      <point x="299.0" y="708.0"/>
      <point x="299.0" y="660.0" type="curve" smooth="yes"/>
      <point x="299.0" y="609.0"/>
      <point x="264" y="576.0"/>
    </contour>
  </outline>
</glyph>
<glyph name="endash" format="2">
  <advance width="555"/>
  <unicode hex="2013"/>
  <outline>
    <contour>
      <point x="450" y="308" type="move"/>
      <point x="105" y="308" type="line"/>
    </contour>
  </outline>
</glyph>
<glyph name="quoteleft" format="2">
  <advance width="274"/>
  <unicode hex="2018"/>
  <outline>
    <contour>
      <point x="159" y="645.0" type="move"/>
      <point x="118" y="574.0"/>
      <point x="102" y="489.0"/>
      <point x="145" y="450.0" type="curve"/>
    </contour>
  </outline>
</glyph>
<glyph name="quotedblright" format="2">
  <advance width="474"/>
  <unicode hex="201D"/>
  <outline>
    <contour>
      <point x="114.75701006646949" y="446.0" type="move"/>
      <point x="155.7570100664695" y="517.0"/>
      <point x="171.7570100664695" y="602.0"/>
      <point x="128.7570100664695" y="641.0" type="curve"/>
    </contour>
    <contour>
      <point x="314.7570100664695" y="446.0" type="move"/>
      <point x="355.7570100664695" y="517.0"/>
      <point x="371.7570100664695" y="602.0"/>
      <point x="328.7570100664695" y="641.0" type="curve"/>
    </contour>
  </outline>
</glyph>
<glyph name="fraction" format="2">
  <advance width="568"/>
  <unicode hex="2044"/>
  <outline>
    <contour>
      <point x="472" y="640" type="move"/>
      <point x="96" y="40" type="line"/>
    </contour>
  </outline>
</glyph>
<glyph name="Euro" format="2">
  <advance width="606"/>
  <unicode hex="20AC"/>
  <outline>
    <contour>
      <point x="526" y="92" type="move"/>
      <point x="312" y="17"/>
      <point x="148" y="126"/>
      <point x="148" y="340" type="curve" smooth="yes"/>
      <point x="148" y="554"/>
      <point x="312" y="663"/>
      <point x="526" y="588" type="curve"/>
    </contour>
    <contour>
      <point x="70" y="420" type="move"/>
      <point x="456" y="420" type="line"/>
    </contour>
    <contour>
      <point x="70" y="262" type="move"/>
      <point x="442" y="262" type="line"/>
    </contour>
  </outline>
</glyph>
<glyph name="divisionslash" format="2">
  <advance width="518"/>
  <unicode hex="2215"/>
  <outline>
    <contour>
      <point x="447" y="690" type="move"/>
      <point x="71" y="-30" type="line"/>
    </contour>
  </outline>
</glyph>
